<svg width="326" height="204" viewBox="0 0 326 204" fill="none" xmlns="http://www.w3.org/2000/svg">
<rect width="79.1429" height="204" fill="#F1F5F9"/>
<rect x="12" y="9" width="35.1746" height="12" rx="6" fill="#CBD5E1"/>
<rect x="12" y="33" width="55.1429" height="12" rx="3" fill="#E2E8F0"/>
<rect x="12" y="52" width="55.1429" height="12" rx="3" fill="#E2E8F0"/>
<rect x="12" y="71" width="55.1429" height="12" rx="3" fill="#E2E8F0"/>
<rect x="12" y="90" width="55.1429" height="12" rx="3" fill="#E2E8F0"/>
<rect x="12" y="183" width="12" height="12" rx="6" fill="#A78BFA"/>
<rect x="28" y="184.5" width="39.1429" height="3" rx="1.5" fill="#CBD5E1"/>
<rect x="28" y="190.5" width="22" height="3" rx="1.5" fill="#CBD5E1"/>
<rect width="246.857" height="29.5873" transform="translate(79.1426)" fill="white"/>
<rect x="91.1426" y="10.7939" width="67.418" height="8" rx="4" fill="#E2E8F0"/>
<rect x="271.496" y="6" width="42.5026" height="17.5873" rx="3" fill="#6366F1"/>
<rect width="246.857" height="174.413" transform="translate(79.1426 29.5869)" fill="#F8FAFC"/>
<rect x="91.1426" y="41.5869" width="222.857" height="114.413" rx="4.39683" fill="white"/>
</svg>
